Input #0, mov,mp4,m4a,3gp,3g2,mj2, from '/home/hbattu/projects/huberman-gpt/huberman-audio/mp3/tmp7l__j5jz.mp4':
  Metadata:
    major_brand     : dash
    minor_version   : 0
    compatible_brands: iso6mp41
    creation_time   : 2022-11-25T14:52:05.000000Z
  Duration: 02:16:31.14, start: 0.000000, bitrate: 129 kb/s
    Stream #0:0(eng): Audio: aac (LC) (mp4a / 0x6134706D), 44100 Hz, stereo, fltp, 0 kb/s (default)
    Metadata:
      creation_time   : 2022-11-25T14:52:05.000000Z
      handler_name    : ISO Media file produced by Google Inc.
Stream mapping:
  Stream #0:0 -> #0:0 (aac (native) -> mp3 (libmp3lame))
Press [q] to stop, [?] for help
[graph_0_in_0_0 @ 0x555735116f00] tb:1/44100 samplefmt:fltp samplerate:44100 chlayout:0x3
Output #0, mp3, to '../huberman-audio/mp3/QmOF0crdyRU.mp3':
  Metadata:
    major_brand     : dash
    minor_version   : 0
    compatible_brands: iso6mp41
    TSSE            : Lavf58.29.100
    Stream #0:0(eng): Audio: mp3 (libmp3lame), 44100 Hz, stereo, fltp, delay 1105 (default)
    Metadata:
      creation_time   : 2022-11-25T14:52:05.000000Z
      handler_name    : ISO Media file produced by Google Inc.
      encoder         : Lavc58.54.100 libmp3lame
No more output streams to write to, finishing.
size=  127988kB time=02:16:31.16 bitrate= 128.0kbits/s speed=  80x    
[AVIOContext @ 0x5557350d9900] Statistics: 0 seeks, 205 writeouts
video:0kB audio:127987kB subtitle:0kB other streams:0kB global headers:0kB muxing overhead: 0.000264%
Input file #0 (/home/hbattu/projects/huberman-gpt/huberman-audio/mp3/tmp7l__j5jz.mp4):
  Input stream #0:0 (audio): 352763 packets read (131058253 bytes); 352763 frames decoded (361229312 samples); 
  Total: 352763 packets (131058253 bytes) demuxed
Output file #0 (../huberman-audio/mp3/QmOF0crdyRU.mp3):
  Output stream #0:0 (audio): 313568 frames encoded (361229312 samples); 313569 packets muxed (131059043 bytes); 
  Total: 313569 packets (131059043 bytes) muxed
[AVIOContext @ 0x555735107f00] Statistics: 2 seeks, 501 writeouts
[AVIOContext @ 0x5557350e2880] Statistics: 132565205 bytes read, 0 seeks
